<?xml version="1.0" encoding="UTF-8"?>
<svg id="Layer_1" data-name="Layer 1" xmlns="http://www.w3.org/2000/svg" viewBox="0 0 36 36">
  <defs>
    <style>
      .cls-1 {
        fill: #fff;
        stroke-width: 0px;
      }
    </style>
  </defs>
  <polygon class="cls-1" points="2.23 2.23 7.87 2.23 7.87 0 0 0 0 7.87 2.23 7.87 2.23 2.23"/>
  <polygon class="cls-1" points="28.13 0 28.13 2.23 33.77 2.23 33.77 7.87 36 7.87 36 0 28.13 0"/>
  <polygon class="cls-1" points="33.77 33.77 28.13 33.77 28.13 36 36 36 36 28.13 33.77 28.13 33.77 33.77"/>
  <polygon class="cls-1" points="2.23 28.13 0 28.13 0 36 7.87 36 7.87 33.77 2.23 33.77 2.23 28.13"/>
  <path class="cls-1" d="M20.37,12.99c1.94,0,3.53-1.58,3.53-3.53s-1.58-3.53-3.53-3.53-3.53,1.58-3.53,3.53,1.58,3.53,3.53,3.53Z"/>
  <polygon class="cls-1" points="5.94 30.06 30.06 30.06 30.06 22.88 25.71 18.28 20.43 21.35 13.08 16.1 5.94 23.64 5.94 30.06"/>
</svg>